<svg class="icon" viewBox="0 0 1024 1024" xmlns="http://www.w3.org/2000/svg" width="512" height="512"><path d="M512 1024a128.103 128.103 0 01-111.806-65.726A128 128 0 01181.91 896.87 128 128 0 0155.794 675.154C19.143 606.537 0 529.223 0 448 0 184.229 210.549 0 512 0s512 184.229 512 448c0 81.223-19.143 158.537-55.84 227.131a128 128 0 01-126.114 221.715A128 128 0 01623.76 958.25 128.103 128.103 0 01512 1024z" fill="#25467A"/><path d="M896 704c-2.377 0-4.731.149-7.051.354C941.714 634.126 972.8 546.64 972.8 448c0-254.491-206.309-396.8-460.8-396.8S51.2 193.509 51.2 448c0 98.64 31.074 186.126 83.851 256.354-2.285-.205-4.674-.354-7.051-.354a76.8 76.8 0 1076.8 76.8c0-1.337-.137-2.651-.206-3.977a443.097 443.097 0 0051.212 36.571A76.766 76.766 0 10384 870.4c0-1.143-.114-2.206-.171-3.314a498.423 498.423 0 0053.622 10.743 76.8 76.8 0 10149.098 0 498.423 498.423 0 0053.622-10.743c0 1.143-.171 2.194-.171 3.314a76.8 76.8 0 10128.194-56.96 443.097 443.097 0 0051.212-36.571c-.069 1.325-.206 2.64-.206 3.977A76.8 76.8 0 10896 704z" fill="#F5CEDB"/><path d="M972.8 780.8a76.8 76.8 0 01-153.6 0c0-1.28.126-2.686.251-3.966a431.531 431.531 0 01-51.325 36.572A76.743 76.743 0 11640 870.4c0-1.143.126-2.171.126-3.326a484.571 484.571 0 01-53.635 10.755 76.8 76.8 0 11-148.982 0 484.571 484.571 0 01-53.635-10.755c0 1.143.126 2.172.126 3.326a76.8 76.8 0 11-128.126-56.96 431.531 431.531 0 01-51.325-36.571c.125 1.28.251 2.685.251 3.965a76.8 76.8 0 11-84.869-76.411A515.943 515.943 0 00428.8 806.4c281.349 0 510.206-224 518.274-503.429C963.714 346.114 972.8 394.63 972.8 448c0 98.686-31.109 186.114-83.84 256.389A61.554 61.554 0 01896 704a76.869 76.869 0 0176.8 76.8z" fill="#EBC5D2"/><path d="M512 550.4a64.069 64.069 0 01-64-64 12.8 12.8 0 1125.6 0 38.4 38.4 0 0076.8 0 12.8 12.8 0 1125.6 0 64.069 64.069 0 01-64 64zM345.6 384a38.4 38.4 0 1076.8 0 38.4 38.4 0 10-76.8 0zm256 0a38.4 38.4 0 1076.8 0 38.4 38.4 0 10-76.8 0z" fill="#25467A"/><path d="M332.8 448h-51.2a25.6 25.6 0 100 51.2h51.2a25.6 25.6 0 100-51.2zm409.6 0h-51.2a25.6 25.6 0 100 51.2h51.2a25.6 25.6 0 000-51.2z" fill="#F87EAC"/></svg>